# xmcd
#
# Track frame offsets:
# 150
# 25752
# 44171
# 62761
# 80809
# 108746
# 146298
# 166995
# 176382
#
# Disc length: 2488 seconds
#
#
# Revision: 0
# Processed by: cddbd v1.5.2PL0 Copyright (c) Steve Scherf et al.
# Submitted via: Nero 7, 11, 10, 0 
#
DISCID=7909b609
DTITLE=Will Thomas - Live In Copenhagen
DYEAR=2003
DGENRE=Blues
TTITLE0=Cissy Strut
TTITLE1=Alabama Day
TTITLE2=Wait...Again
TTITLE3=Tomorrow Will Be Like Yesterday
TTITLE4=Come My Way
TTITLE5=Girl I Know
TTITLE6=Internet Boogie
TTITLE7=I Ain't About To Fight
TTITLE8=Alabama Day (Solo)
EXTD=
EXTT0=Cissy Strut
EXTT1=Alabama Day
EXTT2=Wait...Again
EXTT3=Tomorrow Will Be Like Yesterday
EXTT4=Come My Way
EXTT5=Girl I Know
EXTT6=Internet Boogie
EXTT7=I Ain't About To Fight
EXTT8=Alabama Day (Solo)
PLAYORDER=
